<?xml version="1.0" standalone="no"?>
<!DOCTYPE svg PUBLIC "-//W3C//DTD SVG 20010904//EN"
 "http://www.w3.org/TR/2001/REC-SVG-20010904/DTD/svg10.dtd">
<svg version="1.0" xmlns="http://www.w3.org/2000/svg"
 width="630.000000pt" height="630.000000pt" viewBox="0 0 630.000000 630.000000"
 preserveAspectRatio="xMidYMid meet">
<metadata>
Created by potrace 1.14, written by Peter Selinger 2001-2017
</metadata>
<g transform="translate(0.000000,630.000000) scale(0.100000,-0.100000)"
fill="#000000" stroke="none">
<path d="M2998 5745 c-2 -1 -37 -5 -78 -9 -600 -49 -1172 -317 -1611 -756
-216 -216 -352 -402 -485 -665 -133 -265 -232 -597 -260 -875 -15 -142 -7
-563 12 -677 121 -727 532 -1370 1128 -1767 305 -202 627 -330 1011 -401 124
-24 146 -24 465 -21 364 4 402 8 657 80 329 93 690 281 940 489 222 185 414
401 553 621 192 305 325 658 375 991 25 169 27 195 29 360 4 276 -24 481 -108
785 -46 165 -166 431 -274 609 -119 195 -247 350 -458 552 -367 350 -902 601
-1419 663 -27 4 -68 9 -90 12 -42 5 -382 14 -387 9z"/>
</g>
</svg>
