<svg width="588" height="151" viewBox="0 0 588 151" fill="none" xmlns="http://www.w3.org/2000/svg">
<rect x="6" y="6" width="576" height="139" stroke="#101237" stroke-width="12"/>
<line x1="43.5" y1="27" x2="43.5" y2="123" stroke="black" stroke-width="5"/>
<line x1="83" y1="27" x2="83" y2="123" stroke="black" stroke-width="10"/>
<line x1="50" y1="27" x2="50" y2="123" stroke="black" stroke-width="4"/>
<line x1="105.5" y1="28" x2="105.5" y2="124" stroke="black" stroke-width="5"/>
<line x1="98.5" y1="27" x2="98.5" y2="123" stroke="black" stroke-width="3"/>
<line x1="58.5" y1="27" x2="58.5" y2="123" stroke="black" stroke-width="3"/>
<line x1="115.5" y1="27" x2="115.5" y2="123" stroke="black" stroke-width="7"/>
<line x1="72.5" y1="27" x2="72.5" y2="123" stroke="black" stroke-width="3"/>
<line x1="123.5" y1="27" x2="123.5" y2="123" stroke="black" stroke-width="3"/>
<line x1="138.5" y1="27" x2="138.5" y2="123" stroke="black" stroke-width="7"/>
<line x1="152" y1="27" x2="152" y2="123" stroke="black" stroke-width="4"/>
<line x1="159" y1="27" x2="159" y2="123" stroke="black" stroke-width="6"/>
<line x1="168" y1="27" x2="168" y2="123" stroke="black" stroke-width="6"/>
<line x1="177" y1="27" x2="177" y2="123" stroke="black" stroke-width="8"/>
<line x1="188.5" y1="27" x2="188.5" y2="123" stroke="black" stroke-width="9"/>
<line x1="197.5" y1="27" x2="197.5" y2="123" stroke="black" stroke-width="3"/>
<line x1="203" y1="27" x2="203" y2="123" stroke="black" stroke-width="2"/>
<line x1="216" y1="27" x2="216" y2="123" stroke="black" stroke-width="6"/>
<line x1="229.5" y1="27" x2="229.5" y2="123" stroke="black" stroke-width="7"/>
<line x1="242.5" y1="27" x2="242.5" y2="123" stroke="black" stroke-width="3"/>
<line x1="248" y1="27" x2="248" y2="123" stroke="black" stroke-width="4"/>
<line x1="259.5" y1="27" x2="259.5" y2="123" stroke="black" stroke-width="3"/>
<line x1="271" y1="27" x2="271" y2="123" stroke="black" stroke-width="10"/>
<line x1="283" y1="27" x2="283" y2="123" stroke="black" stroke-width="6"/>
<line x1="291" y1="28" x2="291" y2="124" stroke="black" stroke-width="6"/>
<line x1="301.5" y1="28" x2="301.5" y2="124" stroke="black" stroke-width="9"/>
<line x1="312.5" y1="28" x2="312.5" y2="124" stroke="black" stroke-width="7"/>
<line x1="323.5" y1="28" x2="323.5" y2="124" stroke="black" stroke-width="7"/>
<line x1="333" y1="28" x2="333" y2="124" stroke="black" stroke-width="10"/>
<line x1="345" y1="28" x2="345" y2="124" stroke="black" stroke-width="6"/>
<line x1="355" y1="28" x2="355" y2="124" stroke="black" stroke-width="8"/>
<line x1="364" y1="28" x2="364" y2="124" stroke="black" stroke-width="4"/>
<line x1="372.5" y1="28" x2="372.5" y2="124" stroke="black" stroke-width="9"/>
<line x1="385.5" y1="28" x2="385.5" y2="124" stroke="black" stroke-width="7"/>
<line x1="398" y1="28" x2="398" y2="124" stroke="black" stroke-width="10"/>
<line x1="409" y1="28" x2="409" y2="124" stroke="black" stroke-width="4"/>
<line x1="415" y1="28" x2="415" y2="124" stroke="black" stroke-width="4"/>
<line x1="427" y1="28" x2="427" y2="124" stroke="black" stroke-width="10"/>
<line x1="436.5" y1="28" x2="436.5" y2="124" stroke="black" stroke-width="7"/>
<line x1="446" y1="28" x2="446" y2="124" stroke="black" stroke-width="4"/>
<line x1="457.5" y1="28" x2="457.5" y2="124" stroke="black" stroke-width="9"/>
<line x1="467.5" y1="28" x2="467.5" y2="124" stroke="black" stroke-width="7"/>
<line x1="477" y1="28" x2="477" y2="124" stroke="black" stroke-width="4"/>
<line x1="485" y1="28" x2="485" y2="124" stroke="black" stroke-width="10"/>
<line x1="496" y1="28" x2="496" y2="124" stroke="black" stroke-width="8"/>
<line x1="510" y1="28" x2="510" y2="124" stroke="black" stroke-width="8"/>
<line x1="525.5" y1="28" x2="525.5" y2="124" stroke="black" stroke-width="9"/>
<line x1="534" y1="28" x2="534" y2="124" stroke="black" stroke-width="4"/>
<line x1="540.5" y1="28" x2="540.5" y2="124" stroke="black" stroke-width="7"/>
</svg>
