<svg width="1114" height="912" viewBox="0 0 1114 912" fill="none" xmlns="http://www.w3.org/2000/svg">
<ellipse cx="919.557" cy="334.009" rx="35" ry="147" transform="rotate(179.525 919.557 334.009)" fill="#424242"/>
<ellipse cx="958.027" cy="330.19" rx="53.5" ry="183.5" transform="rotate(179.525 958.027 330.19)" fill="#3F3D3D"/>
<path d="M941.067 475.643C939.375 478.855 936.054 480.877 932.424 480.907L924.54 480.973C919.734 481.013 915.836 477.092 915.904 472.287V472.287C915.912 471.735 915.973 471.185 916.087 470.645L918.188 460.652L919.812 449.454L920.601 441.058L921.76 425.469L922.07 411.086L921.924 393.51L922.185 373.135L922.006 351.565L921.398 329.999L920.82 312.028L920.037 295.256L919.023 276.49L918.035 260.919L917.017 241.752L915.366 223.79L912.344 201.721C911.28 193.956 917.279 187.023 925.116 186.958L927.66 186.937C933.426 186.889 938.534 190.645 940.208 196.163L942.461 203.592L945.823 220.741L949.988 257.058L950.761 272.631L951.752 288.602L952.291 301.78L952.384 312.964L952.566 334.934L952.725 354.107L952.458 373.683L952.544 384.069L952.19 393.26L951.065 412.843L950.15 432.025L949.153 441.221L947.945 450.818L946.925 457.218L945.866 463.422C945.753 464.086 945.588 464.74 945.374 465.378L943.811 470.027L941.067 475.643V475.643Z" fill="black"/>
<path d="M987.193 287.403L986.215 271.652L985.453 256.298L985.396 255.153L985.265 254.014L981.1 217.696L980.94 216.295L980.668 214.911L977.306 197.762L976.961 196.003L976.441 194.288L974.188 186.859C967.944 166.273 948.886 152.26 927.374 152.438L924.83 152.459C895.591 152.701 873.213 178.568 877.18 207.537L880.095 228.825L881.612 245.319L882.593 263.801L882.603 263.983L882.614 264.166L883.592 279.571L884.59 298.043L885.355 314.427L885.922 332.069L886.519 353.213L886.691 374.056L886.436 394.057L886.431 394.431L886.434 394.805L886.575 411.85L886.297 424.77L885.233 439.081L884.56 446.242L883.225 455.446L881.354 464.34C880.77 467.119 880.456 469.947 880.416 472.786C880.067 497.507 900.12 517.676 924.842 517.471L932.727 517.406C949.427 517.268 964.7 507.964 972.484 493.187L941.879 477.066L941.075 476.643L941.989 477.09L972.97 492.229L975.714 486.614L976.73 484.534L977.468 482.34L979.031 477.691C979.832 475.309 980.447 472.868 980.869 470.391L981.927 464.188L981.96 463.998L981.99 463.807L983.01 457.407L983.102 456.832L983.175 456.253L984.383 446.656L984.422 446.352L984.455 446.048L985.452 436.852L985.567 435.786L985.618 434.715L986.525 415.707L987.64 396.297L987.66 395.96L987.673 395.623L988.026 386.432L988.058 385.604L988.051 384.775L987.968 374.778L988.23 355.591L988.235 355.202L988.232 354.813L988.073 335.64L987.891 313.67L987.798 302.486L987.793 301.908L987.77 301.33L987.231 288.152L987.216 287.778L987.193 287.403Z" fill="url(#paint0_linear)"/>
<path d="M987.193 287.403L986.215 271.652L985.453 256.298L985.396 255.153L985.265 254.014L981.1 217.696L980.94 216.295L980.668 214.911L977.306 197.762L976.961 196.003L976.441 194.288L974.188 186.859C967.944 166.273 948.886 152.26 927.374 152.438L924.83 152.459C895.591 152.701 873.213 178.568 877.18 207.537L880.095 228.825L881.612 245.319L882.593 263.801L882.603 263.983L882.614 264.166L883.592 279.571L884.59 298.043L885.355 314.427L885.922 332.069L886.519 353.213L886.691 374.056L886.436 394.057L886.431 394.431L886.434 394.805L886.575 411.85L886.297 424.77L885.233 439.081L884.56 446.242L883.225 455.446L881.354 464.34C880.77 467.119 880.456 469.947 880.416 472.786C880.067 497.507 900.12 517.676 924.842 517.471L932.727 517.406C949.427 517.268 964.7 507.964 972.484 493.187L941.879 477.066L941.075 476.643L941.989 477.09L972.97 492.229L975.714 486.614L976.73 484.534L977.468 482.34L979.031 477.691C979.832 475.309 980.447 472.868 980.869 470.391L981.927 464.188L981.96 463.998L981.99 463.807L983.01 457.407L983.102 456.832L983.175 456.253L984.383 446.656L984.422 446.352L984.455 446.048L985.452 436.852L985.567 435.786L985.618 434.715L986.525 415.707L987.64 396.297L987.66 395.96L987.673 395.623L988.026 386.432L988.058 385.604L988.051 384.775L987.968 374.778L988.23 355.591L988.235 355.202L988.232 354.813L988.073 335.64L987.891 313.67L987.798 302.486L987.793 301.908L987.77 301.33L987.231 288.152L987.216 287.778L987.193 287.403Z" fill="url(#paint1_linear)"/>
<path d="M987.193 287.403L986.215 271.652L985.453 256.298L985.396 255.153L985.265 254.014L981.1 217.696L980.94 216.295L980.668 214.911L977.306 197.762L976.961 196.003L976.441 194.288L974.188 186.859C967.944 166.273 948.886 152.26 927.374 152.438L924.83 152.459C895.591 152.701 873.213 178.568 877.18 207.537L880.095 228.825L881.612 245.319L882.593 263.801L882.603 263.983L882.614 264.166L883.592 279.571L884.59 298.043L885.355 314.427L885.922 332.069L886.519 353.213L886.691 374.056L886.436 394.057L886.431 394.431L886.434 394.805L886.575 411.85L886.297 424.77L885.233 439.081L884.56 446.242L883.225 455.446L881.354 464.34C880.77 467.119 880.456 469.947 880.416 472.786C880.067 497.507 900.12 517.676 924.842 517.471L932.727 517.406C949.427 517.268 964.7 507.964 972.484 493.187L941.879 477.066L941.075 476.643L941.989 477.09L972.97 492.229L975.714 486.614L976.73 484.534L977.468 482.34L979.031 477.691C979.832 475.309 980.447 472.868 980.869 470.391L981.927 464.188L981.96 463.998L981.99 463.807L983.01 457.407L983.102 456.832L983.175 456.253L984.383 446.656L984.422 446.352L984.455 446.048L985.452 436.852L985.567 435.786L985.618 434.715L986.525 415.707L987.64 396.297L987.66 395.96L987.673 395.623L988.026 386.432L988.058 385.604L988.051 384.775L987.968 374.778L988.23 355.591L988.235 355.202L988.232 354.813L988.073 335.64L987.891 313.67L987.798 302.486L987.793 301.908L987.77 301.33L987.231 288.152L987.216 287.778L987.193 287.403Z" stroke="url(#paint2_radial)" stroke-width="71"/>
<path d="M1009.82 509.459C1007.4 511.917 1004.11 513.314 1000.66 513.343L963.837 513.648C958.225 513.695 953.704 509.059 953.891 503.45V503.45C953.929 502.312 954.163 501.189 954.584 500.131L959.336 488.185L963.22 474.152L965.133 463.636L967.971 444.112L968.822 426.104L968.64 404.105L969.428 378.597L969.204 351.598L967.981 324.607L966.794 302.116L965.12 281.13L962.926 257.647L960.764 238.164L958.565 214.182L954.879 191.711L947.462 161.795C945.44 153.64 951.57 145.737 959.973 145.668L998.793 145.346C1003.54 145.306 1007.94 147.86 1010.25 152.007L1017.64 165.245C1017.99 165.871 1018.29 166.525 1018.53 167.2L1025.85 187.623L1035.22 233.047L1036.89 252.534L1039.05 272.517L1040.19 289.008L1040.3 303.007L1040.53 330.506L1040.73 354.505L1039.93 379.013L1040.04 392.012L1039.14 403.52L1036.34 428.044L1034.04 452.064L1031.63 463.585L1028.73 475.609L1026.3 483.629L1023.88 491.103C1023.54 492.133 1023.08 493.117 1022.5 494.033L1019.55 498.715C1019.14 499.365 1018.67 499.976 1018.16 500.543L1012.49 506.745L1009.82 509.459Z" fill="black"/>
<path d="M1062.7 485.917L1063 484.933L1063.24 483.933L1066.14 471.909L1066.27 471.375L1066.39 470.838L1068.79 459.318L1069.19 457.4L1069.38 455.45L1071.65 431.748L1074.41 407.543L1074.48 406.924L1074.53 406.302L1075.43 394.795L1075.55 393.259L1075.54 391.718L1075.44 379.443L1076.21 355.659L1076.24 354.935L1076.23 354.211L1076.03 330.212L1075.8 302.713L1075.69 288.713L1075.68 287.639L1075.6 286.567L1074.47 270.075L1074.42 269.382L1074.34 268.692L1072.22 249.113L1070.6 230.031L1070.42 227.933L1069.99 225.87L1060.61 180.446L1060.11 178.002L1059.27 175.653L1051.95 155.23C1051.05 152.712 1049.94 150.272 1048.64 147.937L1041.25 134.698C1032.61 119.228 1016.22 109.7 998.499 109.847L959.678 110.169C928.332 110.429 905.462 139.911 913.005 170.337L920.078 198.868L923.329 218.681L925.412 241.405L925.443 241.742L925.481 242.079L927.608 261.256L929.752 284.193L931.369 304.463L932.523 326.346L933.711 352.55L933.924 378.196L933.157 403.008L933.135 403.703L933.141 404.399L933.315 425.413L932.592 440.712L930.093 457.904L928.579 466.225L925.637 476.856L921.598 487.01C919.663 491.873 918.585 497.035 918.41 502.266C917.55 528.049 938.334 549.361 964.131 549.147L1000.96 548.842C1013.82 548.735 1026.11 543.523 1035.13 534.353L1037.8 531.638L1038.26 531.17L1038.71 530.684L1044.37 524.483C1046.3 522.368 1048.04 520.086 1049.57 517.664L1052.52 512.982C1054.68 509.565 1056.4 505.893 1057.65 502.049L1060.07 494.576L1060.17 494.257L1060.27 493.937L1062.7 485.917Z" fill="url(#paint3_linear)"/>
<path d="M1062.7 485.917L1063 484.933L1063.24 483.933L1066.14 471.909L1066.27 471.375L1066.39 470.838L1068.79 459.318L1069.19 457.4L1069.38 455.45L1071.65 431.748L1074.41 407.543L1074.48 406.924L1074.53 406.302L1075.43 394.795L1075.55 393.259L1075.54 391.718L1075.44 379.443L1076.21 355.659L1076.24 354.935L1076.23 354.211L1076.03 330.212L1075.8 302.713L1075.69 288.713L1075.68 287.639L1075.6 286.567L1074.47 270.075L1074.42 269.382L1074.34 268.692L1072.22 249.113L1070.6 230.031L1070.42 227.933L1069.99 225.87L1060.61 180.446L1060.11 178.002L1059.27 175.653L1051.95 155.23C1051.05 152.712 1049.94 150.272 1048.64 147.937L1041.25 134.698C1032.61 119.228 1016.22 109.7 998.499 109.847L959.678 110.169C928.332 110.429 905.462 139.911 913.005 170.337L920.078 198.868L923.329 218.681L925.412 241.405L925.443 241.742L925.481 242.079L927.608 261.256L929.752 284.193L931.369 304.463L932.523 326.346L933.711 352.55L933.924 378.196L933.157 403.008L933.135 403.703L933.141 404.399L933.315 425.413L932.592 440.712L930.093 457.904L928.579 466.225L925.637 476.856L921.598 487.01C919.663 491.873 918.585 497.035 918.41 502.266C917.55 528.049 938.334 549.361 964.131 549.147L1000.96 548.842C1013.82 548.735 1026.11 543.523 1035.13 534.353L1037.8 531.638L1038.26 531.17L1038.71 530.684L1044.37 524.483C1046.3 522.368 1048.04 520.086 1049.57 517.664L1052.52 512.982C1054.68 509.565 1056.4 505.893 1057.65 502.049L1060.07 494.576L1060.17 494.257L1060.27 493.937L1062.7 485.917Z" fill="url(#paint4_linear)"/>
<path d="M1062.7 485.917L1063 484.933L1063.24 483.933L1066.14 471.909L1066.27 471.375L1066.39 470.838L1068.79 459.318L1069.19 457.4L1069.38 455.45L1071.65 431.748L1074.41 407.543L1074.48 406.924L1074.53 406.302L1075.43 394.795L1075.55 393.259L1075.54 391.718L1075.44 379.443L1076.21 355.659L1076.24 354.935L1076.23 354.211L1076.03 330.212L1075.8 302.713L1075.69 288.713L1075.68 287.639L1075.6 286.567L1074.47 270.075L1074.42 269.382L1074.34 268.692L1072.22 249.113L1070.6 230.031L1070.42 227.933L1069.99 225.87L1060.61 180.446L1060.11 178.002L1059.27 175.653L1051.95 155.23C1051.05 152.712 1049.94 150.272 1048.64 147.937L1041.25 134.698C1032.61 119.228 1016.22 109.7 998.499 109.847L959.678 110.169C928.332 110.429 905.462 139.911 913.005 170.337L920.078 198.868L923.329 218.681L925.412 241.405L925.443 241.742L925.481 242.079L927.608 261.256L929.752 284.193L931.369 304.463L932.523 326.346L933.711 352.55L933.924 378.196L933.157 403.008L933.135 403.703L933.141 404.399L933.315 425.413L932.592 440.712L930.093 457.904L928.579 466.225L925.637 476.856L921.598 487.01C919.663 491.873 918.585 497.035 918.41 502.266C917.55 528.049 938.334 549.361 964.131 549.147L1000.96 548.842C1013.82 548.735 1026.11 543.523 1035.13 534.353L1037.8 531.638L1038.26 531.17L1038.71 530.684L1044.37 524.483C1046.3 522.368 1048.04 520.086 1049.57 517.664L1052.52 512.982C1054.68 509.565 1056.4 505.893 1057.65 502.049L1060.07 494.576L1060.17 494.257L1060.27 493.937L1062.7 485.917Z" stroke="url(#paint5_radial)" stroke-width="71"/>
<ellipse cx="192" cy="326" rx="35" ry="147" fill="#424242"/>
<ellipse cx="153.5" cy="329.5" rx="53.5" ry="183.5" fill="#3F3D3D"/>
<path d="M171.665 184.193C173.383 180.995 176.72 179 180.351 179H188.235C193.041 179 196.906 182.953 196.799 187.757V187.757C196.786 188.309 196.721 188.858 196.603 189.398L194.419 199.372L192.702 210.557L191.843 218.946L190.555 234.524L190.126 248.905V266.481L189.696 286.853V308.424L190.126 329.995L190.555 347.97L191.199 364.747L192.058 383.522L192.916 399.101L193.775 418.274L195.277 436.25L198.117 458.343C199.115 466.117 193.06 473 185.223 473H182.678C176.912 473 171.835 469.202 170.207 463.67L168.016 456.223L164.796 439.046L160.932 402.696L160.288 387.117L159.429 371.139L159 357.957V346.772V324.802V305.628L159.429 286.054V275.668L159.859 266.481L161.147 246.908L162.22 227.734L163.293 218.546L164.581 208.959L165.654 202.568L166.764 196.374C166.883 195.711 167.053 195.058 167.273 194.421L168.874 189.785L171.665 184.193V184.193Z" fill="black"/>
<path d="M123.98 372.044L124.827 387.803L125.462 403.162L125.51 404.308L125.631 405.448L129.495 441.799L129.644 443.201L129.904 444.587L133.123 461.764L133.454 463.525L133.96 465.245L136.151 472.692C142.224 493.329 161.166 507.5 182.678 507.5H185.223C214.462 507.5 237.054 481.82 233.327 452.818L230.588 431.507L229.209 415.001L228.381 396.512L228.373 396.33L228.362 396.147L227.513 380.734L226.668 362.255L226.039 345.865L225.617 328.219L225.196 307.071V286.227L225.618 266.229L225.626 265.855V265.481V248.435L226.011 235.518L227.194 221.216L227.926 214.061L229.337 204.869L231.281 195.99C231.888 193.216 232.226 190.391 232.29 187.552C232.843 162.835 212.958 142.5 188.235 142.5H180.351C163.65 142.5 148.3 151.677 140.394 166.389L170.864 182.763L171.665 183.193L170.754 182.738L139.9 167.342L137.109 172.935L136.076 175.006L135.32 177.194L133.719 181.83C132.898 184.205 132.263 186.641 131.82 189.114L130.711 195.309L130.677 195.498L130.645 195.689L129.571 202.08L129.475 202.655L129.397 203.232L128.109 212.819L128.069 213.123L128.033 213.427L126.96 222.615L126.835 223.679L126.775 224.75L125.712 243.75L124.435 263.15L124.413 263.487L124.397 263.824L123.968 273.011L123.929 273.84V274.668V284.665L123.509 303.849L123.5 304.238V304.628V323.802V345.772V356.957V357.534L123.519 358.112L123.948 371.294L123.96 371.669L123.98 372.044Z" fill="url(#paint6_linear)"/>
<path d="M123.98 372.044L124.827 387.803L125.462 403.162L125.51 404.308L125.631 405.448L129.495 441.799L129.644 443.201L129.904 444.587L133.123 461.764L133.454 463.525L133.96 465.245L136.151 472.692C142.224 493.329 161.166 507.5 182.678 507.5H185.223C214.462 507.5 237.054 481.82 233.327 452.818L230.588 431.507L229.209 415.001L228.381 396.512L228.373 396.33L228.362 396.147L227.513 380.734L226.668 362.255L226.039 345.865L225.617 328.219L225.196 307.071V286.227L225.618 266.229L225.626 265.855V265.481V248.435L226.011 235.518L227.194 221.216L227.926 214.061L229.337 204.869L231.281 195.99C231.888 193.216 232.226 190.391 232.29 187.552C232.843 162.835 212.958 142.5 188.235 142.5H180.351C163.65 142.5 148.3 151.677 140.394 166.389L170.864 182.763L171.665 183.193L170.754 182.738L139.9 167.342L137.109 172.935L136.076 175.006L135.32 177.194L133.719 181.83C132.898 184.205 132.263 186.641 131.82 189.114L130.711 195.309L130.677 195.498L130.645 195.689L129.571 202.08L129.475 202.655L129.397 203.232L128.109 212.819L128.069 213.123L128.033 213.427L126.96 222.615L126.835 223.679L126.775 224.75L125.712 243.75L124.435 263.15L124.413 263.487L124.397 263.824L123.968 273.011L123.929 273.84V274.668V284.665L123.509 303.849L123.5 304.238V304.628V323.802V345.772V356.957V357.534L123.519 358.112L123.948 371.294L123.96 371.669L123.98 372.044Z" fill="url(#paint7_linear)"/>
<path d="M123.98 372.044L124.827 387.803L125.462 403.162L125.51 404.308L125.631 405.448L129.495 441.799L129.644 443.201L129.904 444.587L133.123 461.764L133.454 463.525L133.96 465.245L136.151 472.692C142.224 493.329 161.166 507.5 182.678 507.5H185.223C214.462 507.5 237.054 481.82 233.327 452.818L230.588 431.507L229.209 415.001L228.381 396.512L228.373 396.33L228.362 396.147L227.513 380.734L226.668 362.255L226.039 345.865L225.617 328.219L225.196 307.071V286.227L225.618 266.229L225.626 265.855V265.481V248.435L226.011 235.518L227.194 221.216L227.926 214.061L229.337 204.869L231.281 195.99C231.888 193.216 232.226 190.391 232.29 187.552C232.843 162.835 212.958 142.5 188.235 142.5H180.351C163.65 142.5 148.3 151.677 140.394 166.389L170.864 182.763L171.665 183.193L170.754 182.738L139.9 167.342L137.109 172.935L136.076 175.006L135.32 177.194L133.719 181.83C132.898 184.205 132.263 186.641 131.82 189.114L130.711 195.309L130.677 195.498L130.645 195.689L129.571 202.08L129.475 202.655L129.397 203.232L128.109 212.819L128.069 213.123L128.033 213.427L126.96 222.615L126.835 223.679L126.775 224.75L125.712 243.75L124.435 263.15L124.413 263.487L124.397 263.824L123.968 273.011L123.929 273.84V274.668V284.665L123.509 303.849L123.5 304.238V304.628V323.802V345.772V356.957V357.534L123.519 358.112L123.948 371.294L123.96 371.669L123.98 372.044Z" stroke="url(#paint8_radial)" stroke-width="71"/>
<path d="M103.192 149.808C105.63 147.37 108.937 146 112.385 146H149.21C154.823 146 159.305 150.673 159.072 156.281V156.281C159.024 157.418 158.78 158.539 158.351 159.594L153.5 171.5L149.5 185.5L147.5 196L144.5 215.5L143.5 233.5V255.5L142.5 281V308L143.5 335L144.5 357.5L146 378.5L148 402L150 421.5L152 445.5L155.5 468L162.668 497.977C164.622 506.149 158.427 514 150.025 514H111.203C106.453 514 102.082 511.41 99.8003 507.244L92.5175 493.945C92.1731 493.316 91.8813 492.66 91.6451 491.983L84.5 471.5L75.5 426L74 406.5L72 386.5L71 370V356V328.5V304.5L72 280V267L73 255.5L76 231L78.5 207L81 195.5L84 183.5L86.5 175.5L88.9843 168.047C89.3268 167.02 89.7962 166.039 90.3819 165.128L93.3761 160.471C93.7912 159.825 94.2627 159.217 94.7851 158.655L100.5 152.5L103.192 149.808Z" fill="black"/>
<path d="M50.116 172.911L49.8093 173.893L49.5599 174.89L46.5599 186.89L46.4268 187.422L46.3102 187.959L43.8102 199.459L43.394 201.373L43.191 203.322L40.7242 227.003L37.7632 251.185L37.6874 251.804L37.6335 252.425L36.6335 263.925L36.5 265.459V267V279.276L35.5295 303.052L35.5 303.776V304.5V328.5V356V370V371.075L35.565 372.148L36.565 388.648L36.607 389.341L36.6762 390.032L38.6357 409.628L40.1046 428.723L40.2661 430.823L40.6747 432.889L49.6747 478.389L50.159 480.837L50.9809 483.193L58.126 503.675C59.0071 506.201 60.0957 508.65 61.3806 510.996L68.6634 524.295C77.1743 539.837 93.4833 549.5 111.203 549.5H150.025C181.373 549.5 204.485 520.208 197.195 489.72L190.359 461.132L187.272 441.292L185.377 418.552L185.349 418.215L185.315 417.878L183.346 398.684L181.393 375.73L179.944 355.447L178.971 333.555L178 307.343V281.696L178.973 256.891L179 256.196V255.5V234.485L179.85 219.192L182.491 202.022L184.074 193.714L187.104 183.107L191.227 172.988C193.202 168.14 194.323 162.988 194.541 157.759C195.615 131.983 175.008 110.5 149.21 110.5H112.385C99.5218 110.5 87.1856 115.61 78.0901 124.705L75.3977 127.398L74.933 127.862L74.4858 128.344L68.7709 134.499C66.8221 136.597 65.063 138.864 63.5142 141.274L60.52 145.931C58.3352 149.33 56.5837 152.988 55.306 156.821L52.8217 164.274L52.7158 164.592L52.616 164.911L50.116 172.911Z" fill="url(#paint9_linear)"/>
<path d="M50.116 172.911L49.8093 173.893L49.5599 174.89L46.5599 186.89L46.4268 187.422L46.3102 187.959L43.8102 199.459L43.394 201.373L43.191 203.322L40.7242 227.003L37.7632 251.185L37.6874 251.804L37.6335 252.425L36.6335 263.925L36.5 265.459V267V279.276L35.5295 303.052L35.5 303.776V304.5V328.5V356V370V371.075L35.565 372.148L36.565 388.648L36.607 389.341L36.6762 390.032L38.6357 409.628L40.1046 428.723L40.2661 430.823L40.6747 432.889L49.6747 478.389L50.159 480.837L50.9809 483.193L58.126 503.675C59.0071 506.201 60.0957 508.65 61.3806 510.996L68.6634 524.295C77.1743 539.837 93.4833 549.5 111.203 549.5H150.025C181.373 549.5 204.485 520.208 197.195 489.72L190.359 461.132L187.272 441.292L185.377 418.552L185.349 418.215L185.315 417.878L183.346 398.684L181.393 375.73L179.944 355.447L178.971 333.555L178 307.343V281.696L178.973 256.891L179 256.196V255.5V234.485L179.85 219.192L182.491 202.022L184.074 193.714L187.104 183.107L191.227 172.988C193.202 168.14 194.323 162.988 194.541 157.759C195.615 131.983 175.008 110.5 149.21 110.5H112.385C99.5218 110.5 87.1856 115.61 78.0901 124.705L75.3977 127.398L74.933 127.862L74.4858 128.344L68.7709 134.499C66.8221 136.597 65.063 138.864 63.5142 141.274L60.52 145.931C58.3352 149.33 56.5837 152.988 55.306 156.821L52.8217 164.274L52.7158 164.592L52.616 164.911L50.116 172.911Z" fill="url(#paint10_linear)"/>
<path d="M50.116 172.911L49.8093 173.893L49.5599 174.89L46.5599 186.89L46.4268 187.422L46.3102 187.959L43.8102 199.459L43.394 201.373L43.191 203.322L40.7242 227.003L37.7632 251.185L37.6874 251.804L37.6335 252.425L36.6335 263.925L36.5 265.459V267V279.276L35.5295 303.052L35.5 303.776V304.5V328.5V356V370V371.075L35.565 372.148L36.565 388.648L36.607 389.341L36.6762 390.032L38.6357 409.628L40.1046 428.723L40.2661 430.823L40.6747 432.889L49.6747 478.389L50.159 480.837L50.9809 483.193L58.126 503.675C59.0071 506.201 60.0957 508.65 61.3806 510.996L68.6634 524.295C77.1743 539.837 93.4833 549.5 111.203 549.5H150.025C181.373 549.5 204.485 520.208 197.195 489.72L190.359 461.132L187.272 441.292L185.377 418.552L185.349 418.215L185.315 417.878L183.346 398.684L181.393 375.73L179.944 355.447L178.971 333.555L178 307.343V281.696L178.973 256.891L179 256.196V255.5V234.485L179.85 219.192L182.491 202.022L184.074 193.714L187.104 183.107L191.227 172.988C193.202 168.14 194.323 162.988 194.541 157.759C195.615 131.983 175.008 110.5 149.21 110.5H112.385C99.5218 110.5 87.1856 115.61 78.0901 124.705L75.3977 127.398L74.933 127.862L74.4858 128.344L68.7709 134.499C66.8221 136.597 65.063 138.864 63.5142 141.274L60.52 145.931C58.3352 149.33 56.5837 152.988 55.306 156.821L52.8217 164.274L52.7158 164.592L52.616 164.911L50.116 172.911Z" stroke="url(#paint11_radial)" stroke-width="71"/>
<rect x="201" y="319" width="717" height="24" rx="3" fill="#696464"/>
<rect x="201" y="319" width="717" height="24" rx="3" fill="black" fill-opacity="0.2"/>
<rect x="196" y="319" width="726" height="24" rx="3" fill="url(#paint12_radial)"/>
<g filter="url(#filter0_i)">
<rect x="183" y="801" width="749" height="42" rx="3" fill="#4A4A4A"/>
<rect x="183" y="801" width="749" height="42" rx="3" fill="black" fill-opacity="0.2"/>
<rect x="184.5" y="802.5" width="746" height="39" rx="1.5" stroke="black" stroke-opacity="0.2" stroke-width="3"/>
<path d="M183 803.99C183 802.337 184.337 800.996 185.99 800.99L925.717 798.509C927.287 798.504 928.595 799.709 928.718 801.274L931.746 839.765C931.883 841.509 930.504 843 928.755 843H186C184.343 843 183 841.657 183 840V803.99Z" fill="url(#paint13_radial)"/>
</g>
<rect x="170.748" y="910.222" width="90.2237" height="42" rx="21" transform="rotate(-124.227 170.748 910.222)" fill="black" fill-opacity="0.45"/>
<rect x="170.748" y="910.222" width="90.2237" height="42" rx="21" transform="rotate(-124.227 170.748 910.222)" fill="url(#paint14_radial)"/>
<g filter="url(#filter1_i)">
<rect x="151.27" y="905.081" width="589.787" height="29.3108" rx="8" transform="rotate(-85.7049 151.27 905.081)" fill="#696464"/>
<rect x="151.27" y="905.081" width="589.787" height="29.3108" rx="8" transform="rotate(-85.7049 151.27 905.081)" fill="black" fill-opacity="0.2"/>
<rect x="150.953" y="905.057" width="589.787" height="29.6288" rx="8" transform="rotate(-85.7049 150.953 905.057)" fill="url(#paint15_radial)"/>
</g>
<rect x="915.213" y="892.064" width="90.2237" height="42" rx="21" transform="rotate(-62.0367 915.213 892.064)" fill="black" fill-opacity="0.45"/>
<rect x="915.213" y="892.064" width="90.2237" height="42" rx="21" transform="rotate(-62.0367 915.213 892.064)" fill="url(#paint16_radial)"/>
<g filter="url(#filter2_i)">
<rect x="937.228" y="906.052" width="595.293" height="37.2525" rx="8" transform="rotate(-95.6659 937.228 906.052)" fill="#696464"/>
<rect x="937.228" y="906.052" width="595.293" height="37.2525" rx="8" transform="rotate(-95.6659 937.228 906.052)" fill="black" fill-opacity="0.2"/>
<rect x="937.228" y="906.052" width="595.293" height="37.9543" rx="8" transform="rotate(-95.6659 937.228 906.052)" fill="url(#paint17_radial)"/>
</g>
<path d="M255.987 39.2432C257.687 17.3764 275.927 0.5 297.86 0.5H819.331C841.391 0.5 859.692 17.567 861.229 39.5738L877.362 270.574C879.059 294.863 859.812 315.5 835.464 315.5H279.893C255.414 315.5 236.122 294.649 238.02 270.243L255.987 39.2432Z" fill="#C4C4C4"/>
<path d="M215.046 373.977C217.588 352.876 235.491 337 256.744 337H843.571C864.256 337 881.861 352.06 885.064 372.495L919.396 591.495C923.39 616.974 903.692 640 877.903 640H230.363C205.175 640 185.652 617.984 188.664 592.977L215.046 373.977Z" fill="#C5C5C5"/>
<rect x="477" y="259" width="42" height="122" rx="7" fill="black"/>
<rect x="477" y="259" width="42" height="122" rx="7" fill="#1A0707" fill-opacity="0.7"/>
<rect x="567" y="259" width="42" height="122" rx="7" fill="black"/>
<rect x="567" y="259" width="42" height="122" rx="7" fill="#1A0707" fill-opacity="0.7"/>
<rect x="576" y="240" width="25" height="146" rx="2" fill="black"/>
<rect x="576" y="240" width="25" height="146" rx="2" fill="url(#paint18_radial)"/>
<rect x="576" y="240" width="25" height="146" rx="2" fill="url(#paint19_radial)" fill-opacity="0.8"/>
<rect x="486" y="240" width="25" height="146" rx="2" fill="black"/>
<rect x="486" y="240" width="25" height="146" rx="2" fill="url(#paint20_radial)"/>
<rect x="486" y="240" width="25" height="146" rx="2" fill="url(#paint21_radial)" fill-opacity="0.7"/>
<path d="M190 594.552C190 592.875 191.375 591.523 193.051 591.552L918.712 603.944C920.477 603.974 921.835 605.514 921.643 607.269L919 631.5L909.5 684.5L902.183 708.544C892.701 739.704 863.959 761 831.389 761H288.282C249.748 761 216.689 733.529 209.634 695.646L207 681.5L190 624V594.552Z" fill="#C5C5C5"/>
<g filter="url(#filter3_di)">
<path fill-rule="evenodd" clip-rule="evenodd" d="M258.14 337C236.733 337 218.751 353.1 216.395 374.377L190.259 610.377C187.505 635.251 206.978 657 232.004 657H879.427C905.133 657 924.808 634.115 920.952 608.699L920.831 607.905C922.105 602.661 922.382 597.063 921.465 591.346L886.324 372.346C883.056 351.979 865.482 337 844.854 337H843.618C864.381 337 882.028 352.171 885.143 372.699L920.831 607.905C916.42 626.072 900.055 640 879.995 640H234.692C208.733 640 188.99 616.686 193.266 591.081L229.841 372.081C233.222 351.836 250.742 337 271.267 337H258.14Z" fill="#928989"/>
<path fill-rule="evenodd" clip-rule="evenodd" d="M202 660.566C208.088 675.123 222.882 686 241.193 686H874.487C893.254 686 908.129 674.671 913.99 659.798C911.322 661.539 908.136 662.551 904.712 662.551H209.978C207.094 662.551 204.379 661.833 202 660.566Z" fill="#928989"/>
<path fill-rule="evenodd" clip-rule="evenodd" d="M208 689.384C213.916 703.295 228.522 713.719 246.626 713.719H869.039C887.623 713.719 902.323 702.826 907.992 688.583C905.272 690.431 901.988 691.51 898.453 691.51H216.239C213.25 691.51 210.441 690.739 208 689.384Z" fill="#928989"/>
<path fill-rule="evenodd" clip-rule="evenodd" d="M215.01 714.723C220.321 724.942 235.025 732.753 253.423 732.753H862.068C881.221 732.753 896.155 724.359 900.979 713.697C898.084 715.981 894.429 717.345 890.455 717.345H224.083C220.747 717.345 217.635 716.384 215.01 714.723Z" fill="#928989"/>
<path fill-rule="evenodd" clip-rule="evenodd" d="M230.03 736.775C235.625 742.341 249.284 746.504 266.198 746.504H850.115C867.87 746.504 881.845 741.955 886.943 736.066C885.16 737.02 883.124 737.561 880.96 737.561H234.439C232.889 737.561 231.404 737.283 230.03 736.775Z" fill="#928989"/>
</g>
<defs>
<filter id="filter0_i" x="183" y="798.509" width="749" height="48.4907" filterUnits="userSpaceOnUse" color-interpolation-filters="sRGB">
<feFlood flood-opacity="0" result="BackgroundImageFix"/>
<feBlend mode="normal" in="SourceGraphic" in2="BackgroundImageFix" result="shape"/>
<feColorMatrix in="SourceAlpha" type="matrix" values="0 0 0 0 0 0 0 0 0 0 0 0 0 0 0 0 0 0 127 0" result="hardAlpha"/>
<feOffset dy="4"/>
<feGaussianBlur stdDeviation="57"/>
<feComposite in2="hardAlpha" operator="arithmetic" k2="-1" k3="1"/>
<feColorMatrix type="matrix" values="0 0 0 0 0 0 0 0 0 0 0 0 0 0 0 0 0 0 0.38 0"/>
<feBlend mode="normal" in2="shape" result="effect1_innerShadow"/>
</filter>
<filter id="filter1_i" x="150.953" y="316.926" width="73.7169" height="594.35" filterUnits="userSpaceOnUse" color-interpolation-filters="sRGB">
<feFlood flood-opacity="0" result="BackgroundImageFix"/>
<feBlend mode="normal" in="SourceGraphic" in2="BackgroundImageFix" result="shape"/>
<feColorMatrix in="SourceAlpha" type="matrix" values="0 0 0 0 0 0 0 0 0 0 0 0 0 0 0 0 0 0 127 0" result="hardAlpha"/>
<feOffset dy="4"/>
<feGaussianBlur stdDeviation="57"/>
<feComposite in2="hardAlpha" operator="arithmetic" k2="-1" k3="1"/>
<feColorMatrix type="matrix" values="0 0 0 0 0 0 0 0 0 0 0 0 0 0 0 0 0 0 0.38 0"/>
<feBlend mode="normal" in2="shape" result="effect1_innerShadow"/>
</filter>
<filter id="filter2_i" x="878.456" y="309.92" width="96.5403" height="600.132" filterUnits="userSpaceOnUse" color-interpolation-filters="sRGB">
<feFlood flood-opacity="0" result="BackgroundImageFix"/>
<feBlend mode="normal" in="SourceGraphic" in2="BackgroundImageFix" result="shape"/>
<feColorMatrix in="SourceAlpha" type="matrix" values="0 0 0 0 0 0 0 0 0 0 0 0 0 0 0 0 0 0 127 0" result="hardAlpha"/>
<feOffset dy="4"/>
<feGaussianBlur stdDeviation="57"/>
<feComposite in2="hardAlpha" operator="arithmetic" k2="-1" k3="1"/>
<feColorMatrix type="matrix" values="0 0 0 0 0 0 0 0 0 0 0 0 0 0 0 0 0 0 0.38 0"/>
<feBlend mode="normal" in2="shape" result="effect1_innerShadow"/>
</filter>
<filter id="filter3_di" x="145.999" y="297" width="820.005" height="497.504" filterUnits="userSpaceOnUse" color-interpolation-filters="sRGB">
<feFlood flood-opacity="0" result="BackgroundImageFix"/>
<feColorMatrix in="SourceAlpha" type="matrix" values="0 0 0 0 0 0 0 0 0 0 0 0 0 0 0 0 0 0 127 0" result="hardAlpha"/>
<feOffset dy="4"/>
<feGaussianBlur stdDeviation="22"/>
<feComposite in2="hardAlpha" operator="out"/>
<feColorMatrix type="matrix" values="0 0 0 0 0 0 0 0 0 0 0 0 0 0 0 0 0 0 0.25 0"/>
<feBlend mode="normal" in2="BackgroundImageFix" result="effect1_dropShadow"/>
<feBlend mode="normal" in="SourceGraphic" in2="effect1_dropShadow" result="shape"/>
<feColorMatrix in="SourceAlpha" type="matrix" values="0 0 0 0 0 0 0 0 0 0 0 0 0 0 0 0 0 0 127 0" result="hardAlpha"/>
<feOffset dy="4"/>
<feGaussianBlur stdDeviation="2"/>
<feComposite in2="hardAlpha" operator="arithmetic" k2="-1" k3="1"/>
<feColorMatrix type="matrix" values="0 0 0 0 0 0 0 0 0 0 0 0 0 0 0 0 0 0 0.49 0"/>
<feBlend mode="normal" in2="shape" result="effect2_innerShadow"/>
</filter>
<linearGradient id="paint0_linear" x1="935.022" y1="323.653" x2="932.522" y2="209.653" gradientUnits="userSpaceOnUse">
<stop/>
<stop offset="1" stop-color="#C4C4C4" stop-opacity="0"/>
</linearGradient>
<linearGradient id="paint1_linear" x1="932.522" y1="338.153" x2="932.522" y2="269.153" gradientUnits="userSpaceOnUse">
<stop/>
<stop offset="1" stop-opacity="0"/>
</linearGradient>
<radialGradient id="paint2_radial" cx="0" cy="0" r="1" gradientUnits="userSpaceOnUse" gradientTransform="translate(934.857 348.065) rotate(91.5769) scale(77.944 10.9041)">
<stop/>
<stop offset="1" stop-opacity="0"/>
</radialGradient>
<linearGradient id="paint3_linear" x1="1001.52" y1="310.153" x2="985.022" y2="144.653" gradientUnits="userSpaceOnUse">
<stop/>
<stop offset="1" stop-color="#C4C4C4" stop-opacity="0"/>
</linearGradient>
<linearGradient id="paint4_linear" x1="983.022" y1="144.653" x2="992.522" y2="269.653" gradientUnits="userSpaceOnUse">
<stop/>
<stop offset="1" stop-opacity="0"/>
</linearGradient>
<radialGradient id="paint5_radial" cx="0" cy="0" r="1" gradientUnits="userSpaceOnUse" gradientTransform="translate(999.158 345.85) rotate(93.3392) scale(97.7164 25.3585)">
<stop/>
<stop offset="1" stop-opacity="0"/>
</radialGradient>
<linearGradient id="paint6_linear" x1="183.471" y1="183.992" x2="155.999" y2="321.131" gradientUnits="userSpaceOnUse">
<stop/>
<stop offset="1" stop-color="#C4C4C4" stop-opacity="0"/>
</linearGradient>
<linearGradient id="paint7_linear" x1="176.173" y1="358.554" x2="182.056" y2="310.733" gradientUnits="userSpaceOnUse">
<stop/>
<stop offset="1" stop-opacity="0"/>
</linearGradient>
<radialGradient id="paint8_radial" cx="0" cy="0" r="1" gradientUnits="userSpaceOnUse" gradientTransform="translate(176.817 311.818) rotate(-87.9482) scale(77.944 10.9041)">
<stop/>
<stop offset="1" stop-opacity="0"/>
</radialGradient>
<linearGradient id="paint9_linear" x1="128" y1="153.5" x2="109" y2="330" gradientUnits="userSpaceOnUse">
<stop/>
<stop offset="1" stop-color="#C4C4C4" stop-opacity="0"/>
</linearGradient>
<linearGradient id="paint10_linear" x1="111" y1="372" x2="115" y2="311.5" gradientUnits="userSpaceOnUse">
<stop/>
<stop offset="1" stop-opacity="0"/>
</linearGradient>
<radialGradient id="paint11_radial" cx="0" cy="0" r="1" gradientUnits="userSpaceOnUse" gradientTransform="translate(112.5 313.5) rotate(-86.1859) scale(97.7164 25.3585)">
<stop/>
<stop offset="1" stop-opacity="0"/>
</radialGradient>
<radialGradient id="paint12_radial" cx="0" cy="0" r="1" gradientUnits="userSpaceOnUse" gradientTransform="translate(559 331) rotate(90) scale(12 363)">
<stop/>
<stop offset="1" stop-opacity="0"/>
</radialGradient>
<radialGradient id="paint13_radial" cx="0" cy="0" r="1" gradientUnits="userSpaceOnUse" gradientTransform="translate(560 822) rotate(90) scale(21 377)">
<stop/>
<stop offset="1" stop-opacity="0"/>
</radialGradient>
<radialGradient id="paint14_radial" cx="0" cy="0" r="1" gradientUnits="userSpaceOnUse" gradientTransform="translate(215.86 931.222) rotate(90) scale(21 45.1119)">
<stop/>
<stop offset="1" stop-opacity="0"/>
</radialGradient>
<radialGradient id="paint15_radial" cx="0" cy="0" r="1" gradientUnits="userSpaceOnUse" gradientTransform="translate(445.846 919.871) rotate(90) scale(14.8144 294.893)">
<stop/>
<stop offset="1" stop-opacity="0"/>
</radialGradient>
<radialGradient id="paint16_radial" cx="0" cy="0" r="1" gradientUnits="userSpaceOnUse" gradientTransform="translate(960.325 913.064) rotate(90) scale(21 45.1119)">
<stop/>
<stop offset="1" stop-opacity="0"/>
</radialGradient>
<radialGradient id="paint17_radial" cx="0" cy="0" r="1" gradientUnits="userSpaceOnUse" gradientTransform="translate(1234.87 925.029) rotate(90) scale(18.9771 297.647)">
<stop/>
<stop offset="1" stop-opacity="0"/>
</radialGradient>
<radialGradient id="paint18_radial" cx="0" cy="0" r="1" gradientUnits="userSpaceOnUse" gradientTransform="translate(588 255.5) rotate(89.7805) scale(130.501 60.6995)">
<stop/>
<stop offset="1" stop-color="#C4C4C4" stop-opacity="0"/>
</radialGradient>
<radialGradient id="paint19_radial" cx="0" cy="0" r="1" gradientUnits="userSpaceOnUse" gradientTransform="translate(588 367) rotate(-90) scale(127 21.7466)">
<stop/>
<stop offset="1" stop-opacity="0"/>
</radialGradient>
<radialGradient id="paint20_radial" cx="0" cy="0" r="1" gradientUnits="userSpaceOnUse" gradientTransform="translate(498 255.5) rotate(89.7805) scale(130.501 60.6995)">
<stop/>
<stop offset="1" stop-color="#C4C4C4" stop-opacity="0"/>
</radialGradient>
<radialGradient id="paint21_radial" cx="0" cy="0" r="1" gradientUnits="userSpaceOnUse" gradientTransform="translate(498 367) rotate(-90) scale(127 21.7466)">
<stop/>
<stop offset="1" stop-opacity="0"/>
</radialGradient>
</defs>
</svg>
